<mxfile host="app.diagrams.net" modified="2024-01-30T02:00:45.902Z" agent="Mozilla/5.0 (Windows NT 10.0; Win64; x64) AppleWebKit/537.36 (KHTML, like Gecko) Chrome/121.0.0.0 Safari/537.36" etag="1KViQ3q_DeHU59d04clH" version="22.1.21" type="github">
  <diagram name="Page-1" id="hKuly2Bz2IKXPWWTgTds">
    <mxGraphModel dx="2071" dy="759" grid="1" gridSize="10" guides="1" tooltips="1" connect="1" arrows="1" fold="1" page="1" pageScale="1" pageWidth="850" pageHeight="1100" math="0" shadow="0">
      <root>
        <mxCell id="0" />
        <mxCell id="1" parent="0" />
        <mxCell id="SFf2Btg46Zuehb72WBfB-1" value="App.js" style="rounded=0;whiteSpace=wrap;html=1;" vertex="1" parent="1">
          <mxGeometry x="365" width="120" height="60" as="geometry" />
        </mxCell>
        <mxCell id="SFf2Btg46Zuehb72WBfB-2" value="Home.js" style="rounded=0;whiteSpace=wrap;html=1;" vertex="1" parent="1">
          <mxGeometry x="280" y="130" width="120" height="60" as="geometry" />
        </mxCell>
        <mxCell id="SFf2Btg46Zuehb72WBfB-3" value="About.js" style="rounded=0;whiteSpace=wrap;html=1;" vertex="1" parent="1">
          <mxGeometry x="450" y="130" width="120" height="60" as="geometry" />
        </mxCell>
        <mxCell id="SFf2Btg46Zuehb72WBfB-4" value="SignUpOrSignIn.js" style="rounded=0;whiteSpace=wrap;html=1;" vertex="1" parent="1">
          <mxGeometry x="-50" y="130" width="120" height="60" as="geometry" />
        </mxCell>
        <mxCell id="SFf2Btg46Zuehb72WBfB-6" value="Header.js" style="rounded=0;whiteSpace=wrap;html=1;" vertex="1" parent="1">
          <mxGeometry x="790" y="130" width="120" height="60" as="geometry" />
        </mxCell>
        <mxCell id="SFf2Btg46Zuehb72WBfB-7" value="UserMenu.js" style="rounded=0;whiteSpace=wrap;html=1;" vertex="1" parent="1">
          <mxGeometry x="790" y="260" width="120" height="60" as="geometry" />
        </mxCell>
        <mxCell id="SFf2Btg46Zuehb72WBfB-9" value="" style="rounded=0;whiteSpace=wrap;html=1;" vertex="1" parent="1">
          <mxGeometry x="-110" y="700" width="1110" height="720" as="geometry" />
        </mxCell>
        <mxCell id="SFf2Btg46Zuehb72WBfB-10" value="Header" style="rounded=0;whiteSpace=wrap;html=1;" vertex="1" parent="1">
          <mxGeometry x="-80" y="750" width="760" height="100" as="geometry" />
        </mxCell>
        <mxCell id="SFf2Btg46Zuehb72WBfB-11" value="User" style="rounded=0;whiteSpace=wrap;html=1;" vertex="1" parent="1">
          <mxGeometry x="680" y="750" width="290" height="100" as="geometry" />
        </mxCell>
        <mxCell id="SFf2Btg46Zuehb72WBfB-12" value="Search, filter, and sort options&lt;br&gt;&lt;br&gt;&lt;br&gt;&lt;br&gt;&lt;br&gt;&lt;br&gt;&lt;br&gt;&lt;br&gt;&lt;br&gt;&lt;br&gt;&lt;br&gt;&lt;br&gt;&lt;br&gt;&lt;br&gt;&lt;br&gt;&lt;br&gt;&lt;br&gt;&lt;br&gt;&lt;br&gt;&lt;br&gt;&lt;br&gt;&lt;br&gt;&lt;br&gt;" style="rounded=0;whiteSpace=wrap;html=1;align=left;" vertex="1" parent="1">
          <mxGeometry x="-70" y="870" width="400" height="380" as="geometry" />
        </mxCell>
        <mxCell id="SFf2Btg46Zuehb72WBfB-13" value="SearchFilterSort.js" style="rounded=0;whiteSpace=wrap;html=1;" vertex="1" parent="1">
          <mxGeometry x="130" y="380" width="120" height="60" as="geometry" />
        </mxCell>
        <mxCell id="SFf2Btg46Zuehb72WBfB-14" value="CreateAndEdit.js" style="rounded=0;whiteSpace=wrap;html=1;" vertex="1" parent="1">
          <mxGeometry x="120" y="130" width="120" height="60" as="geometry" />
        </mxCell>
        <mxCell id="SFf2Btg46Zuehb72WBfB-15" value="PostCard.js" style="rounded=0;whiteSpace=wrap;html=1;" vertex="1" parent="1">
          <mxGeometry x="595" y="470" width="70" height="30" as="geometry" />
        </mxCell>
        <mxCell id="SFf2Btg46Zuehb72WBfB-17" value="&lt;p&gt;List of post cards&lt;/p&gt;&lt;p&gt;&lt;br&gt;&lt;/p&gt;&lt;p&gt;&lt;br&gt;&lt;/p&gt;&lt;p&gt;&lt;br&gt;&lt;/p&gt;&lt;p&gt;&lt;br&gt;&lt;/p&gt;&lt;p&gt;&lt;br&gt;&lt;/p&gt;&lt;p&gt;&lt;br&gt;&lt;/p&gt;&lt;p&gt;&lt;br&gt;&lt;/p&gt;&lt;p&gt;&lt;br&gt;&lt;/p&gt;&lt;p&gt;&lt;br&gt;&lt;/p&gt;&lt;p&gt;&lt;br&gt;&lt;/p&gt;&lt;p&gt;&lt;br&gt;&lt;/p&gt;&lt;p&gt;&lt;br&gt;&lt;/p&gt;&lt;p&gt;&lt;br&gt;&lt;/p&gt;&lt;p&gt;&lt;br&gt;&lt;/p&gt;&lt;p&gt;&lt;br&gt;&lt;/p&gt;&lt;p&gt;&lt;br&gt;&lt;/p&gt;&lt;p&gt;&lt;br&gt;&lt;/p&gt;&lt;p&gt;&lt;br&gt;&lt;/p&gt;&lt;p&gt;&lt;br&gt;&lt;/p&gt;&lt;p&gt;&lt;br&gt;&lt;/p&gt;" style="rounded=0;whiteSpace=wrap;html=1;align=left;" vertex="1" parent="1">
          <mxGeometry x="360" y="870" width="540" height="550" as="geometry" />
        </mxCell>
        <mxCell id="SFf2Btg46Zuehb72WBfB-20" value="Search" style="rounded=0;whiteSpace=wrap;html=1;" vertex="1" parent="1">
          <mxGeometry x="-60" y="910" width="380" height="70" as="geometry" />
        </mxCell>
        <mxCell id="SFf2Btg46Zuehb72WBfB-21" value="Sort" style="rounded=0;whiteSpace=wrap;html=1;" vertex="1" parent="1">
          <mxGeometry x="-60" y="1000" width="380" height="80" as="geometry" />
        </mxCell>
        <mxCell id="SFf2Btg46Zuehb72WBfB-22" value="Filter" style="rounded=0;whiteSpace=wrap;html=1;" vertex="1" parent="1">
          <mxGeometry x="-60" y="1115" width="380" height="85" as="geometry" />
        </mxCell>
        <mxCell id="SFf2Btg46Zuehb72WBfB-23" value="Post card" style="rounded=0;whiteSpace=wrap;html=1;" vertex="1" parent="1">
          <mxGeometry x="385" y="910" width="485" height="60" as="geometry" />
        </mxCell>
        <mxCell id="SFf2Btg46Zuehb72WBfB-24" value="Post card" style="rounded=0;whiteSpace=wrap;html=1;" vertex="1" parent="1">
          <mxGeometry x="385" y="990" width="485" height="60" as="geometry" />
        </mxCell>
        <mxCell id="SFf2Btg46Zuehb72WBfB-25" value="Post card" style="rounded=0;whiteSpace=wrap;html=1;" vertex="1" parent="1">
          <mxGeometry x="385" y="1070" width="485" height="60" as="geometry" />
        </mxCell>
        <mxCell id="SFf2Btg46Zuehb72WBfB-26" value="Post card" style="rounded=0;whiteSpace=wrap;html=1;" vertex="1" parent="1">
          <mxGeometry x="385" y="1150" width="485" height="60" as="geometry" />
        </mxCell>
        <mxCell id="SFf2Btg46Zuehb72WBfB-27" value="Post card" style="rounded=0;whiteSpace=wrap;html=1;" vertex="1" parent="1">
          <mxGeometry x="385" y="1230" width="485" height="60" as="geometry" />
        </mxCell>
        <mxCell id="SFf2Btg46Zuehb72WBfB-28" value="Post card" style="rounded=0;whiteSpace=wrap;html=1;" vertex="1" parent="1">
          <mxGeometry x="385" y="1310" width="485" height="60" as="geometry" />
        </mxCell>
        <mxCell id="SFf2Btg46Zuehb72WBfB-29" value="&lt;h2&gt;React route: /&lt;/h2&gt;" style="text;html=1;strokeColor=none;fillColor=none;align=center;verticalAlign=middle;whiteSpace=wrap;rounded=0;" vertex="1" parent="1">
          <mxGeometry x="333" y="710" width="185" height="30" as="geometry" />
        </mxCell>
        <mxCell id="SFf2Btg46Zuehb72WBfB-30" value="" style="rounded=0;whiteSpace=wrap;html=1;" vertex="1" parent="1">
          <mxGeometry x="-110" y="1480" width="1110" height="720" as="geometry" />
        </mxCell>
        <mxCell id="SFf2Btg46Zuehb72WBfB-31" value="Header" style="rounded=0;whiteSpace=wrap;html=1;" vertex="1" parent="1">
          <mxGeometry x="-80" y="1530" width="760" height="100" as="geometry" />
        </mxCell>
        <mxCell id="SFf2Btg46Zuehb72WBfB-32" value="User" style="rounded=0;whiteSpace=wrap;html=1;" vertex="1" parent="1">
          <mxGeometry x="680" y="1530" width="290" height="100" as="geometry" />
        </mxCell>
        <mxCell id="SFf2Btg46Zuehb72WBfB-33" value="Help panel:&lt;br&gt;Markdown,&lt;br&gt;MathJax&lt;br&gt;Graphics" style="rounded=0;whiteSpace=wrap;html=1;align=left;" vertex="1" parent="1">
          <mxGeometry x="-70" y="1650" width="290" height="380" as="geometry" />
        </mxCell>
        <mxCell id="SFf2Btg46Zuehb72WBfB-34" value="&lt;p&gt;Post submission form&lt;/p&gt;&lt;p&gt;&lt;br&gt;&lt;/p&gt;&lt;p&gt;&lt;br&gt;&lt;/p&gt;&lt;p&gt;&lt;br&gt;&lt;/p&gt;&lt;p&gt;&lt;br&gt;&lt;/p&gt;&lt;p&gt;&lt;br&gt;&lt;/p&gt;&lt;p&gt;&lt;br&gt;&lt;/p&gt;&lt;p&gt;&lt;br&gt;&lt;/p&gt;&lt;p&gt;&lt;br&gt;&lt;/p&gt;&lt;p&gt;&lt;br&gt;&lt;/p&gt;&lt;p&gt;&lt;br&gt;&lt;/p&gt;&lt;p&gt;&lt;br&gt;&lt;/p&gt;&lt;p&gt;&lt;br&gt;&lt;/p&gt;&lt;p&gt;&lt;br&gt;&lt;/p&gt;&lt;p&gt;&lt;br&gt;&lt;/p&gt;&lt;p&gt;&lt;br&gt;&lt;/p&gt;&lt;p&gt;&lt;br&gt;&lt;/p&gt;&lt;p&gt;&lt;br&gt;&lt;/p&gt;&lt;p&gt;&lt;br&gt;&lt;/p&gt;&lt;p&gt;&lt;br&gt;&lt;/p&gt;&lt;p&gt;&lt;br&gt;&lt;/p&gt;" style="rounded=0;whiteSpace=wrap;html=1;align=left;" vertex="1" parent="1">
          <mxGeometry x="250" y="1650" width="650" height="550" as="geometry" />
        </mxCell>
        <mxCell id="SFf2Btg46Zuehb72WBfB-38" value="Problem body" style="rounded=0;whiteSpace=wrap;html=1;" vertex="1" parent="1">
          <mxGeometry x="290" y="1690" width="570" height="110" as="geometry" />
        </mxCell>
        <mxCell id="SFf2Btg46Zuehb72WBfB-39" value="Answer body" style="rounded=0;whiteSpace=wrap;html=1;" vertex="1" parent="1">
          <mxGeometry x="290" y="1820" width="570" height="110" as="geometry" />
        </mxCell>
        <mxCell id="SFf2Btg46Zuehb72WBfB-40" value="Solution body" style="rounded=0;whiteSpace=wrap;html=1;" vertex="1" parent="1">
          <mxGeometry x="290" y="1950" width="570" height="110" as="geometry" />
        </mxCell>
        <mxCell id="SFf2Btg46Zuehb72WBfB-41" value="References" style="rounded=0;whiteSpace=wrap;html=1;" vertex="1" parent="1">
          <mxGeometry x="290" y="2080" width="570" height="110" as="geometry" />
        </mxCell>
        <mxCell id="SFf2Btg46Zuehb72WBfB-44" value="&lt;h2&gt;React route: /new-post&lt;/h2&gt;" style="text;html=1;strokeColor=none;fillColor=none;align=center;verticalAlign=middle;whiteSpace=wrap;rounded=0;" vertex="1" parent="1">
          <mxGeometry x="15" y="1490" width="820" height="30" as="geometry" />
        </mxCell>
        <mxCell id="SFf2Btg46Zuehb72WBfB-45" value="Submit button" style="rounded=0;whiteSpace=wrap;html=1;" vertex="1" parent="1">
          <mxGeometry x="15" y="1960" width="120" height="60" as="geometry" />
        </mxCell>
        <mxCell id="SFf2Btg46Zuehb72WBfB-46" value="" style="rounded=0;whiteSpace=wrap;html=1;" vertex="1" parent="1">
          <mxGeometry x="-100" y="2240" width="1110" height="720" as="geometry" />
        </mxCell>
        <mxCell id="SFf2Btg46Zuehb72WBfB-47" value="Header" style="rounded=0;whiteSpace=wrap;html=1;" vertex="1" parent="1">
          <mxGeometry x="-80" y="2300" width="760" height="100" as="geometry" />
        </mxCell>
        <mxCell id="SFf2Btg46Zuehb72WBfB-48" value="User" style="rounded=0;whiteSpace=wrap;html=1;" vertex="1" parent="1">
          <mxGeometry x="680" y="2300" width="290" height="100" as="geometry" />
        </mxCell>
        <mxCell id="SFf2Btg46Zuehb72WBfB-50" value="&lt;p&gt;&lt;br&gt;&lt;/p&gt;" style="rounded=0;whiteSpace=wrap;html=1;align=left;" vertex="1" parent="1">
          <mxGeometry x="-25" y="2419" width="650" height="550" as="geometry" />
        </mxCell>
        <mxCell id="SFf2Btg46Zuehb72WBfB-51" value="Problem body" style="rounded=0;whiteSpace=wrap;html=1;" vertex="1" parent="1">
          <mxGeometry x="15" y="2460" width="570" height="110" as="geometry" />
        </mxCell>
        <mxCell id="SFf2Btg46Zuehb72WBfB-52" value="Answer body" style="rounded=0;whiteSpace=wrap;html=1;" vertex="1" parent="1">
          <mxGeometry x="15" y="2590" width="570" height="110" as="geometry" />
        </mxCell>
        <mxCell id="SFf2Btg46Zuehb72WBfB-53" value="Solution body" style="rounded=0;whiteSpace=wrap;html=1;" vertex="1" parent="1">
          <mxGeometry x="15" y="2720" width="570" height="110" as="geometry" />
        </mxCell>
        <mxCell id="SFf2Btg46Zuehb72WBfB-54" value="References" style="rounded=0;whiteSpace=wrap;html=1;" vertex="1" parent="1">
          <mxGeometry x="15" y="2850" width="570" height="110" as="geometry" />
        </mxCell>
        <mxCell id="SFf2Btg46Zuehb72WBfB-55" value="&lt;h2&gt;React route: /view-post/:id&lt;/h2&gt;" style="text;html=1;strokeColor=none;fillColor=none;align=center;verticalAlign=middle;whiteSpace=wrap;rounded=0;" vertex="1" parent="1">
          <mxGeometry x="15" y="2260" width="820" height="30" as="geometry" />
        </mxCell>
        <mxCell id="SFf2Btg46Zuehb72WBfB-57" value="" style="rounded=0;whiteSpace=wrap;html=1;" vertex="1" parent="1">
          <mxGeometry x="650" y="2420" width="320" height="500" as="geometry" />
        </mxCell>
        <mxCell id="SFf2Btg46Zuehb72WBfB-58" value="Comment" style="rounded=0;whiteSpace=wrap;html=1;" vertex="1" parent="1">
          <mxGeometry x="680" y="2440" width="260" height="60" as="geometry" />
        </mxCell>
        <mxCell id="SFf2Btg46Zuehb72WBfB-59" value="Comment" style="rounded=0;whiteSpace=wrap;html=1;" vertex="1" parent="1">
          <mxGeometry x="710" y="2520" width="230" height="60" as="geometry" />
        </mxCell>
        <mxCell id="SFf2Btg46Zuehb72WBfB-60" value="Comment" style="rounded=0;whiteSpace=wrap;html=1;" vertex="1" parent="1">
          <mxGeometry x="680" y="2680" width="260" height="60" as="geometry" />
        </mxCell>
        <mxCell id="SFf2Btg46Zuehb72WBfB-61" value="Comment" style="rounded=0;whiteSpace=wrap;html=1;" vertex="1" parent="1">
          <mxGeometry x="710" y="2600" width="230" height="60" as="geometry" />
        </mxCell>
        <mxCell id="SFf2Btg46Zuehb72WBfB-62" value="Add comment form" style="rounded=0;whiteSpace=wrap;html=1;" vertex="1" parent="1">
          <mxGeometry x="680" y="2770" width="260" height="120" as="geometry" />
        </mxCell>
        <mxCell id="SFf2Btg46Zuehb72WBfB-63" value="Browse.js" style="rounded=0;whiteSpace=wrap;html=1;" vertex="1" parent="1">
          <mxGeometry x="370" y="260" width="120" height="60" as="geometry" />
        </mxCell>
        <mxCell id="SFf2Btg46Zuehb72WBfB-65" value="ViewPost.js" style="rounded=0;whiteSpace=wrap;html=1;" vertex="1" parent="1">
          <mxGeometry x="620" y="130" width="120" height="60" as="geometry" />
        </mxCell>
        <mxCell id="SFf2Btg46Zuehb72WBfB-66" value="CreateGuide.js" style="rounded=0;whiteSpace=wrap;html=1;" vertex="1" parent="1">
          <mxGeometry x="-50" y="260" width="120" height="60" as="geometry" />
        </mxCell>
        <mxCell id="SFf2Btg46Zuehb72WBfB-67" value="SubmitPostForm.js" style="rounded=0;whiteSpace=wrap;html=1;" vertex="1" parent="1">
          <mxGeometry x="120" y="260" width="120" height="60" as="geometry" />
        </mxCell>
        <mxCell id="SFf2Btg46Zuehb72WBfB-68" value="PostCardList.js" style="rounded=0;whiteSpace=wrap;html=1;" vertex="1" parent="1">
          <mxGeometry x="500" y="380" width="120" height="60" as="geometry" />
        </mxCell>
        <mxCell id="SFf2Btg46Zuehb72WBfB-69" value="Comments.js" style="rounded=0;whiteSpace=wrap;html=1;" vertex="1" parent="1">
          <mxGeometry x="620" y="260" width="120" height="60" as="geometry" />
        </mxCell>
        <mxCell id="SFf2Btg46Zuehb72WBfB-70" value="Comment.js" style="rounded=0;whiteSpace=wrap;html=1;" vertex="1" parent="1">
          <mxGeometry x="730" y="370" width="80" height="30" as="geometry" />
        </mxCell>
        <mxCell id="SFf2Btg46Zuehb72WBfB-71" value="Comment.js" style="rounded=0;whiteSpace=wrap;html=1;" vertex="1" parent="1">
          <mxGeometry x="730" y="410" width="80" height="30" as="geometry" />
        </mxCell>
        <mxCell id="SFf2Btg46Zuehb72WBfB-72" value="Comment.js" style="rounded=0;whiteSpace=wrap;html=1;" vertex="1" parent="1">
          <mxGeometry x="730" y="450" width="80" height="30" as="geometry" />
        </mxCell>
        <mxCell id="SFf2Btg46Zuehb72WBfB-73" value="PostCard.js" style="rounded=0;whiteSpace=wrap;html=1;" vertex="1" parent="1">
          <mxGeometry x="595" y="520" width="70" height="30" as="geometry" />
        </mxCell>
        <mxCell id="SFf2Btg46Zuehb72WBfB-74" value="PostCard.js" style="rounded=0;whiteSpace=wrap;html=1;" vertex="1" parent="1">
          <mxGeometry x="595" y="570" width="70" height="30" as="geometry" />
        </mxCell>
        <mxCell id="SFf2Btg46Zuehb72WBfB-75" value="" style="endArrow=classic;html=1;rounded=0;entryX=1;entryY=0;entryDx=0;entryDy=0;exitX=0;exitY=1;exitDx=0;exitDy=0;" edge="1" parent="1" source="SFf2Btg46Zuehb72WBfB-1" target="SFf2Btg46Zuehb72WBfB-4">
          <mxGeometry width="50" height="50" relative="1" as="geometry">
            <mxPoint x="500" y="380" as="sourcePoint" />
            <mxPoint x="550" y="330" as="targetPoint" />
          </mxGeometry>
        </mxCell>
        <mxCell id="SFf2Btg46Zuehb72WBfB-76" value="" style="endArrow=classic;html=1;rounded=0;entryX=1;entryY=0;entryDx=0;entryDy=0;exitX=0;exitY=1;exitDx=0;exitDy=0;" edge="1" parent="1" source="SFf2Btg46Zuehb72WBfB-1" target="SFf2Btg46Zuehb72WBfB-14">
          <mxGeometry width="50" height="50" relative="1" as="geometry">
            <mxPoint x="375" y="70" as="sourcePoint" />
            <mxPoint x="80" y="140" as="targetPoint" />
          </mxGeometry>
        </mxCell>
        <mxCell id="SFf2Btg46Zuehb72WBfB-77" value="" style="endArrow=classic;html=1;rounded=0;entryX=0.5;entryY=0;entryDx=0;entryDy=0;exitX=0;exitY=1;exitDx=0;exitDy=0;" edge="1" parent="1" source="SFf2Btg46Zuehb72WBfB-1" target="SFf2Btg46Zuehb72WBfB-2">
          <mxGeometry width="50" height="50" relative="1" as="geometry">
            <mxPoint x="320" y="50" as="sourcePoint" />
            <mxPoint x="250" y="140" as="targetPoint" />
          </mxGeometry>
        </mxCell>
        <mxCell id="SFf2Btg46Zuehb72WBfB-78" value="" style="endArrow=classic;html=1;rounded=0;entryX=0.5;entryY=0;entryDx=0;entryDy=0;exitX=1;exitY=1;exitDx=0;exitDy=0;" edge="1" parent="1" source="SFf2Btg46Zuehb72WBfB-1" target="SFf2Btg46Zuehb72WBfB-3">
          <mxGeometry width="50" height="50" relative="1" as="geometry">
            <mxPoint x="375" y="70" as="sourcePoint" />
            <mxPoint x="350" y="140" as="targetPoint" />
          </mxGeometry>
        </mxCell>
        <mxCell id="SFf2Btg46Zuehb72WBfB-79" value="" style="endArrow=classic;html=1;rounded=0;entryX=0;entryY=0;entryDx=0;entryDy=0;exitX=1;exitY=1;exitDx=0;exitDy=0;" edge="1" parent="1" source="SFf2Btg46Zuehb72WBfB-1" target="SFf2Btg46Zuehb72WBfB-65">
          <mxGeometry width="50" height="50" relative="1" as="geometry">
            <mxPoint x="495" y="70" as="sourcePoint" />
            <mxPoint x="520" y="140" as="targetPoint" />
          </mxGeometry>
        </mxCell>
        <mxCell id="SFf2Btg46Zuehb72WBfB-80" value="" style="endArrow=classic;html=1;rounded=0;exitX=1;exitY=1;exitDx=0;exitDy=0;entryX=0;entryY=0;entryDx=0;entryDy=0;" edge="1" parent="1" source="SFf2Btg46Zuehb72WBfB-1" target="SFf2Btg46Zuehb72WBfB-6">
          <mxGeometry width="50" height="50" relative="1" as="geometry">
            <mxPoint x="500" y="380" as="sourcePoint" />
            <mxPoint x="550" y="330" as="targetPoint" />
          </mxGeometry>
        </mxCell>
        <mxCell id="SFf2Btg46Zuehb72WBfB-81" value="" style="endArrow=classic;html=1;rounded=0;exitX=0.25;exitY=1;exitDx=0;exitDy=0;entryX=0.75;entryY=0;entryDx=0;entryDy=0;" edge="1" parent="1" source="SFf2Btg46Zuehb72WBfB-14" target="SFf2Btg46Zuehb72WBfB-66">
          <mxGeometry width="50" height="50" relative="1" as="geometry">
            <mxPoint x="500" y="380" as="sourcePoint" />
            <mxPoint x="550" y="330" as="targetPoint" />
          </mxGeometry>
        </mxCell>
        <mxCell id="SFf2Btg46Zuehb72WBfB-82" value="" style="endArrow=classic;html=1;rounded=0;exitX=0.5;exitY=1;exitDx=0;exitDy=0;entryX=0.5;entryY=0;entryDx=0;entryDy=0;" edge="1" parent="1" source="SFf2Btg46Zuehb72WBfB-14" target="SFf2Btg46Zuehb72WBfB-67">
          <mxGeometry width="50" height="50" relative="1" as="geometry">
            <mxPoint x="160" y="200" as="sourcePoint" />
            <mxPoint x="50" y="270" as="targetPoint" />
          </mxGeometry>
        </mxCell>
        <mxCell id="SFf2Btg46Zuehb72WBfB-83" value="" style="endArrow=classic;html=1;rounded=0;exitX=0.5;exitY=1;exitDx=0;exitDy=0;entryX=0.25;entryY=0;entryDx=0;entryDy=0;" edge="1" parent="1" source="SFf2Btg46Zuehb72WBfB-2" target="SFf2Btg46Zuehb72WBfB-63">
          <mxGeometry width="50" height="50" relative="1" as="geometry">
            <mxPoint x="500" y="380" as="sourcePoint" />
            <mxPoint x="550" y="330" as="targetPoint" />
          </mxGeometry>
        </mxCell>
        <mxCell id="SFf2Btg46Zuehb72WBfB-84" value="" style="endArrow=classic;html=1;rounded=0;exitX=0.5;exitY=1;exitDx=0;exitDy=0;entryX=0.5;entryY=0;entryDx=0;entryDy=0;" edge="1" parent="1" source="SFf2Btg46Zuehb72WBfB-65" target="SFf2Btg46Zuehb72WBfB-69">
          <mxGeometry width="50" height="50" relative="1" as="geometry">
            <mxPoint x="350" y="200" as="sourcePoint" />
            <mxPoint x="410" y="270" as="targetPoint" />
          </mxGeometry>
        </mxCell>
        <mxCell id="SFf2Btg46Zuehb72WBfB-86" value="" style="endArrow=classic;html=1;rounded=0;exitX=0.5;exitY=1;exitDx=0;exitDy=0;entryX=0;entryY=0;entryDx=0;entryDy=0;" edge="1" parent="1" source="SFf2Btg46Zuehb72WBfB-69" target="SFf2Btg46Zuehb72WBfB-70">
          <mxGeometry width="50" height="50" relative="1" as="geometry">
            <mxPoint x="500" y="380" as="sourcePoint" />
            <mxPoint x="550" y="330" as="targetPoint" />
          </mxGeometry>
        </mxCell>
        <mxCell id="SFf2Btg46Zuehb72WBfB-87" value="" style="endArrow=classic;html=1;rounded=0;exitX=0.5;exitY=1;exitDx=0;exitDy=0;entryX=0;entryY=0;entryDx=0;entryDy=0;" edge="1" parent="1" source="SFf2Btg46Zuehb72WBfB-69" target="SFf2Btg46Zuehb72WBfB-71">
          <mxGeometry width="50" height="50" relative="1" as="geometry">
            <mxPoint x="690" y="330" as="sourcePoint" />
            <mxPoint x="670" y="390" as="targetPoint" />
          </mxGeometry>
        </mxCell>
        <mxCell id="SFf2Btg46Zuehb72WBfB-88" value="" style="endArrow=classic;html=1;rounded=0;exitX=0.5;exitY=1;exitDx=0;exitDy=0;entryX=0;entryY=0;entryDx=0;entryDy=0;" edge="1" parent="1" source="SFf2Btg46Zuehb72WBfB-69" target="SFf2Btg46Zuehb72WBfB-72">
          <mxGeometry width="50" height="50" relative="1" as="geometry">
            <mxPoint x="690" y="330" as="sourcePoint" />
            <mxPoint x="740" y="420" as="targetPoint" />
          </mxGeometry>
        </mxCell>
        <mxCell id="SFf2Btg46Zuehb72WBfB-89" value="" style="endArrow=classic;html=1;rounded=0;entryX=0.5;entryY=0;entryDx=0;entryDy=0;exitX=0.25;exitY=1;exitDx=0;exitDy=0;" edge="1" parent="1" source="SFf2Btg46Zuehb72WBfB-63" target="SFf2Btg46Zuehb72WBfB-13">
          <mxGeometry width="50" height="50" relative="1" as="geometry">
            <mxPoint x="500" y="380" as="sourcePoint" />
            <mxPoint x="550" y="330" as="targetPoint" />
          </mxGeometry>
        </mxCell>
        <mxCell id="SFf2Btg46Zuehb72WBfB-90" value="" style="endArrow=classic;html=1;rounded=0;exitX=0.75;exitY=1;exitDx=0;exitDy=0;entryX=0.25;entryY=0;entryDx=0;entryDy=0;" edge="1" parent="1" source="SFf2Btg46Zuehb72WBfB-63" target="SFf2Btg46Zuehb72WBfB-68">
          <mxGeometry width="50" height="50" relative="1" as="geometry">
            <mxPoint x="500" y="380" as="sourcePoint" />
            <mxPoint x="550" y="330" as="targetPoint" />
          </mxGeometry>
        </mxCell>
        <mxCell id="SFf2Btg46Zuehb72WBfB-91" value="" style="endArrow=classic;html=1;rounded=0;entryX=0;entryY=0;entryDx=0;entryDy=0;exitX=0.5;exitY=1;exitDx=0;exitDy=0;" edge="1" parent="1" source="SFf2Btg46Zuehb72WBfB-68" target="SFf2Btg46Zuehb72WBfB-73">
          <mxGeometry width="50" height="50" relative="1" as="geometry">
            <mxPoint x="450" y="540" as="sourcePoint" />
            <mxPoint x="625" y="500" as="targetPoint" />
          </mxGeometry>
        </mxCell>
        <mxCell id="SFf2Btg46Zuehb72WBfB-93" value="" style="endArrow=classic;html=1;rounded=0;entryX=0;entryY=0;entryDx=0;entryDy=0;exitX=0.5;exitY=1;exitDx=0;exitDy=0;" edge="1" parent="1" source="SFf2Btg46Zuehb72WBfB-68" target="SFf2Btg46Zuehb72WBfB-15">
          <mxGeometry width="50" height="50" relative="1" as="geometry">
            <mxPoint x="460" y="510" as="sourcePoint" />
            <mxPoint x="605" y="530" as="targetPoint" />
          </mxGeometry>
        </mxCell>
        <mxCell id="SFf2Btg46Zuehb72WBfB-94" value="" style="endArrow=classic;html=1;rounded=0;entryX=0;entryY=0;entryDx=0;entryDy=0;exitX=0.5;exitY=1;exitDx=0;exitDy=0;" edge="1" parent="1" source="SFf2Btg46Zuehb72WBfB-68" target="SFf2Btg46Zuehb72WBfB-74">
          <mxGeometry width="50" height="50" relative="1" as="geometry">
            <mxPoint x="470" y="510" as="sourcePoint" />
            <mxPoint x="605" y="530" as="targetPoint" />
          </mxGeometry>
        </mxCell>
        <mxCell id="SFf2Btg46Zuehb72WBfB-95" value="Comment.js" style="rounded=0;whiteSpace=wrap;html=1;" vertex="1" parent="1">
          <mxGeometry x="790" y="510" width="80" height="30" as="geometry" />
        </mxCell>
        <mxCell id="SFf2Btg46Zuehb72WBfB-96" value="Comment.js" style="rounded=0;whiteSpace=wrap;html=1;" vertex="1" parent="1">
          <mxGeometry x="790" y="560" width="80" height="30" as="geometry" />
        </mxCell>
        <mxCell id="SFf2Btg46Zuehb72WBfB-97" value="" style="endArrow=classic;html=1;rounded=0;exitX=0.5;exitY=1;exitDx=0;exitDy=0;entryX=0;entryY=0;entryDx=0;entryDy=0;" edge="1" parent="1" source="SFf2Btg46Zuehb72WBfB-72" target="SFf2Btg46Zuehb72WBfB-95">
          <mxGeometry width="50" height="50" relative="1" as="geometry">
            <mxPoint x="500" y="380" as="sourcePoint" />
            <mxPoint x="550" y="330" as="targetPoint" />
          </mxGeometry>
        </mxCell>
        <mxCell id="SFf2Btg46Zuehb72WBfB-98" value="" style="endArrow=classic;html=1;rounded=0;entryX=0;entryY=0;entryDx=0;entryDy=0;exitX=0.5;exitY=1;exitDx=0;exitDy=0;" edge="1" parent="1" source="SFf2Btg46Zuehb72WBfB-72" target="SFf2Btg46Zuehb72WBfB-96">
          <mxGeometry width="50" height="50" relative="1" as="geometry">
            <mxPoint x="720" y="540" as="sourcePoint" />
            <mxPoint x="800" y="520" as="targetPoint" />
          </mxGeometry>
        </mxCell>
        <mxCell id="SFf2Btg46Zuehb72WBfB-99" value="" style="endArrow=classic;html=1;rounded=0;entryX=0.5;entryY=0;entryDx=0;entryDy=0;exitX=0.5;exitY=1;exitDx=0;exitDy=0;" edge="1" parent="1" source="SFf2Btg46Zuehb72WBfB-6" target="SFf2Btg46Zuehb72WBfB-7">
          <mxGeometry width="50" height="50" relative="1" as="geometry">
            <mxPoint x="780" y="490" as="sourcePoint" />
            <mxPoint x="800" y="570" as="targetPoint" />
          </mxGeometry>
        </mxCell>
        <mxCell id="SFf2Btg46Zuehb72WBfB-100" value="ViewPlaylist.js" style="rounded=0;whiteSpace=wrap;html=1;" vertex="1" parent="1">
          <mxGeometry x="960" y="130" width="120" height="60" as="geometry" />
        </mxCell>
        <mxCell id="SFf2Btg46Zuehb72WBfB-101" value="PostCard.js" style="rounded=0;whiteSpace=wrap;html=1;" vertex="1" parent="1">
          <mxGeometry x="1055" y="350" width="70" height="30" as="geometry" />
        </mxCell>
        <mxCell id="SFf2Btg46Zuehb72WBfB-102" value="PostCardList.js" style="rounded=0;whiteSpace=wrap;html=1;" vertex="1" parent="1">
          <mxGeometry x="960" y="260" width="120" height="60" as="geometry" />
        </mxCell>
        <mxCell id="SFf2Btg46Zuehb72WBfB-103" value="PostCard.js" style="rounded=0;whiteSpace=wrap;html=1;" vertex="1" parent="1">
          <mxGeometry x="1055" y="400" width="70" height="30" as="geometry" />
        </mxCell>
        <mxCell id="SFf2Btg46Zuehb72WBfB-104" value="PostCard.js" style="rounded=0;whiteSpace=wrap;html=1;" vertex="1" parent="1">
          <mxGeometry x="1055" y="450" width="70" height="30" as="geometry" />
        </mxCell>
        <mxCell id="SFf2Btg46Zuehb72WBfB-105" value="" style="endArrow=classic;html=1;rounded=0;entryX=0;entryY=0;entryDx=0;entryDy=0;exitX=0.5;exitY=1;exitDx=0;exitDy=0;" edge="1" parent="1" source="SFf2Btg46Zuehb72WBfB-102" target="SFf2Btg46Zuehb72WBfB-103">
          <mxGeometry width="50" height="50" relative="1" as="geometry">
            <mxPoint x="910" y="420" as="sourcePoint" />
            <mxPoint x="1085" y="380" as="targetPoint" />
          </mxGeometry>
        </mxCell>
        <mxCell id="SFf2Btg46Zuehb72WBfB-106" value="" style="endArrow=classic;html=1;rounded=0;entryX=0;entryY=0;entryDx=0;entryDy=0;exitX=0.5;exitY=1;exitDx=0;exitDy=0;" edge="1" parent="1" source="SFf2Btg46Zuehb72WBfB-102" target="SFf2Btg46Zuehb72WBfB-101">
          <mxGeometry width="50" height="50" relative="1" as="geometry">
            <mxPoint x="920" y="390" as="sourcePoint" />
            <mxPoint x="1065" y="410" as="targetPoint" />
          </mxGeometry>
        </mxCell>
        <mxCell id="SFf2Btg46Zuehb72WBfB-107" value="" style="endArrow=classic;html=1;rounded=0;entryX=0;entryY=0;entryDx=0;entryDy=0;exitX=0.5;exitY=1;exitDx=0;exitDy=0;" edge="1" parent="1" source="SFf2Btg46Zuehb72WBfB-102" target="SFf2Btg46Zuehb72WBfB-104">
          <mxGeometry width="50" height="50" relative="1" as="geometry">
            <mxPoint x="930" y="390" as="sourcePoint" />
            <mxPoint x="1065" y="410" as="targetPoint" />
          </mxGeometry>
        </mxCell>
        <mxCell id="SFf2Btg46Zuehb72WBfB-108" value="" style="endArrow=classic;html=1;rounded=0;entryX=0.5;entryY=0;entryDx=0;entryDy=0;exitX=0.5;exitY=1;exitDx=0;exitDy=0;" edge="1" parent="1" source="SFf2Btg46Zuehb72WBfB-100" target="SFf2Btg46Zuehb72WBfB-102">
          <mxGeometry width="50" height="50" relative="1" as="geometry">
            <mxPoint x="920" y="230" as="sourcePoint" />
            <mxPoint x="550" y="310" as="targetPoint" />
          </mxGeometry>
        </mxCell>
        <mxCell id="SFf2Btg46Zuehb72WBfB-109" value="" style="endArrow=classic;html=1;rounded=0;entryX=0;entryY=0;entryDx=0;entryDy=0;exitX=1;exitY=1;exitDx=0;exitDy=0;" edge="1" parent="1" source="SFf2Btg46Zuehb72WBfB-1" target="SFf2Btg46Zuehb72WBfB-100">
          <mxGeometry width="50" height="50" relative="1" as="geometry">
            <mxPoint x="1030" y="200" as="sourcePoint" />
            <mxPoint x="1030" y="270" as="targetPoint" />
          </mxGeometry>
        </mxCell>
        <mxCell id="SFf2Btg46Zuehb72WBfB-110" value="PlaylistList.js" style="rounded=0;whiteSpace=wrap;html=1;" vertex="1" parent="1">
          <mxGeometry x="320" y="380" width="120" height="60" as="geometry" />
        </mxCell>
        <mxCell id="SFf2Btg46Zuehb72WBfB-111" value="PlaylistCard.js" style="rounded=0;whiteSpace=wrap;html=1;" vertex="1" parent="1">
          <mxGeometry x="415" y="470" width="95" height="30" as="geometry" />
        </mxCell>
        <mxCell id="SFf2Btg46Zuehb72WBfB-112" value="PlaylistCard.js" style="rounded=0;whiteSpace=wrap;html=1;" vertex="1" parent="1">
          <mxGeometry x="415" y="520" width="95" height="30" as="geometry" />
        </mxCell>
        <mxCell id="SFf2Btg46Zuehb72WBfB-113" value="PlaylistCard.js" style="rounded=0;whiteSpace=wrap;html=1;" vertex="1" parent="1">
          <mxGeometry x="415" y="570" width="95" height="30" as="geometry" />
        </mxCell>
        <mxCell id="SFf2Btg46Zuehb72WBfB-114" value="" style="endArrow=classic;html=1;rounded=0;entryX=0;entryY=0;entryDx=0;entryDy=0;exitX=0.5;exitY=1;exitDx=0;exitDy=0;" edge="1" parent="1" target="SFf2Btg46Zuehb72WBfB-112">
          <mxGeometry width="50" height="50" relative="1" as="geometry">
            <mxPoint x="380" y="440" as="sourcePoint" />
            <mxPoint x="445" y="500" as="targetPoint" />
          </mxGeometry>
        </mxCell>
        <mxCell id="SFf2Btg46Zuehb72WBfB-115" value="" style="endArrow=classic;html=1;rounded=0;entryX=0;entryY=0;entryDx=0;entryDy=0;exitX=0.5;exitY=1;exitDx=0;exitDy=0;" edge="1" parent="1" target="SFf2Btg46Zuehb72WBfB-111">
          <mxGeometry width="50" height="50" relative="1" as="geometry">
            <mxPoint x="380" y="440" as="sourcePoint" />
            <mxPoint x="425" y="530" as="targetPoint" />
          </mxGeometry>
        </mxCell>
        <mxCell id="SFf2Btg46Zuehb72WBfB-116" value="" style="endArrow=classic;html=1;rounded=0;entryX=0;entryY=0;entryDx=0;entryDy=0;exitX=0.5;exitY=1;exitDx=0;exitDy=0;" edge="1" parent="1" target="SFf2Btg46Zuehb72WBfB-113">
          <mxGeometry width="50" height="50" relative="1" as="geometry">
            <mxPoint x="380" y="440" as="sourcePoint" />
            <mxPoint x="425" y="530" as="targetPoint" />
          </mxGeometry>
        </mxCell>
        <mxCell id="SFf2Btg46Zuehb72WBfB-117" value="" style="endArrow=classic;html=1;rounded=0;exitX=0.5;exitY=1;exitDx=0;exitDy=0;entryX=0.5;entryY=0;entryDx=0;entryDy=0;" edge="1" parent="1" source="SFf2Btg46Zuehb72WBfB-63" target="SFf2Btg46Zuehb72WBfB-110">
          <mxGeometry width="50" height="50" relative="1" as="geometry">
            <mxPoint x="500" y="360" as="sourcePoint" />
            <mxPoint x="550" y="310" as="targetPoint" />
          </mxGeometry>
        </mxCell>
      </root>
    </mxGraphModel>
  </diagram>
</mxfile>
